<mxfile host="drawio-plugin" modified="2023-01-04T04:21:27.732Z" agent="5.0 (Macintosh; Intel Mac OS X 10_15_7) AppleWebKit/537.36 (KHTML, like Gecko) Chrome/104.0.5112.102 Safari/537.36" etag="nO7pCVVT_sZT49le9S_H" version="20.5.3" type="embed" pages="3"><diagram id="ycGnjYmzJwle-k11gkEK" name="领域模型"><mxGraphModel dx="770" dy="701" grid="1" gridSize="10" guides="1" tooltips="1" connect="1" arrows="1" fold="1" page="0" pageScale="1" pageWidth="827" pageHeight="1169" background="none" math="0" shadow="0"><root><mxCell id="0"/><mxCell id="1" parent="0"/></root></mxGraphModel></diagram><diagram id="wL-bm5XVc8d2GiLxiRYR" name="数据模型"><mxGraphModel dx="770" dy="701" grid="1" gridSize="10" guides="1" tooltips="1" connect="1" arrows="1" fold="1" page="0" pageScale="1" pageWidth="850" pageHeight="1100" math="0" shadow="0"><root><mxCell id="0"/><mxCell id="1" parent="0"/></root></mxGraphModel></diagram><diagram id="42abYVA6F6GgjxX3dboJ" name="上下文关系映射"><mxGraphModel dx="770" dy="701" grid="1" gridSize="10" guides="1" tooltips="1" connect="1" arrows="1" fold="1" page="0" pageScale="1" pageWidth="850" pageHeight="1100" math="0" shadow="0"><root><mxCell id="0"/><mxCell id="1" parent="0"/></root></mxGraphModel></diagram></mxfile>